<svg width="16" height="16" viewBox="0 0 16 16" fill="none" xmlns="http://www.w3.org/2000/svg">
  <path d="M16 8C16 12.4183 12.4183 16 8 16C3.58172 16 0 12.4183 0 8C0 3.58172 3.58172 0 8 0C12.4183 0 16 3.58172 16 8Z" fill="white"></path>
  <path fill-rule="evenodd" clip-rule="evenodd" d="M8 15.6C12.1974 15.6 15.6 12.1974 15.6 8C15.6 3.80264 12.1974 0.4 8 0.4C3.80264 0.4 0.4 3.80264 0.4 8C0.4 12.1974 3.80264 15.6 8 15.6ZM8 16C12.4183 16 16 12.4183 16 8C16 3.58172 12.4183 0 8 0C3.58172 0 0 3.58172 0 8C0 12.4183 3.58172 16 8 16Z" fill="#4CA3FF" fill-opacity="0.4"></path>
  <path fill-rule="evenodd" clip-rule="evenodd" d="M10.4011 7.15986L10.4009 7.1603C10.818 7.67867 11.0673 8.33522 11.0673 9.04932C11.0673 9.77404 10.8106 10.4395 10.3822 10.9614L10.3453 11.0063L10.3355 10.9492C10.3272 10.9006 10.3174 10.8516 10.306 10.8022C10.0916 9.86862 9.39309 9.06809 8.24337 8.41991C7.46699 7.9834 7.02258 7.45779 6.9059 6.8606C6.83055 6.47443 6.88658 6.08656 6.99484 5.75432C7.10307 5.4222 7.26408 5.14393 7.40086 4.97641L7.40095 4.9763L7.84819 4.43432C7.92663 4.33928 8.07341 4.33928 8.15185 4.43432L10.4011 7.15986ZM11.1085 6.61838L11.1085 6.61817L8.11082 2.98561C8.05359 2.91625 7.94643 2.91625 7.88918 2.98561L4.89143 6.61821L4.89152 6.61842L4.88176 6.63041C4.33012 7.3088 4 8.17092 4 9.10939C4 11.2951 5.79083 13.067 8.00001 13.067C10.2092 13.067 12 11.2951 12 9.10939C12 8.17093 11.6699 7.30881 11.1182 6.63041L11.1085 6.61838ZM5.60871 7.14815L5.60883 7.14801L5.87695 6.82308L5.88506 6.88307C5.89148 6.93059 5.89926 6.97835 5.9085 7.02632C6.08199 7.92841 6.70175 8.68061 7.73791 9.26317C8.6386 9.77119 9.163 10.3554 9.3141 10.996C9.37714 11.2634 9.38838 11.5265 9.36108 11.7565L9.35938 11.7707L9.34639 11.777C8.93988 11.9738 8.4829 12.0843 7.99991 12.0843C6.30587 12.0843 4.9325 10.7255 4.9325 9.04932C4.9325 8.32966 5.18567 7.66838 5.60871 7.14815Z" fill="#4CA3FF"></path>
</svg>
